G04 OpenClaw Smart Switch v3.0 - Top Solder Mask*
G04 Layer: F.Mask (Solder Mask Top)*
%FSLAX46Y46*%
%MOMM*%
%LPD*%

G04 ========================================
G04 Aperture Definitions
G04 ========================================
%ADD10C,3.50*%    G04 LED hole mask
%ADD11R,2.50X3.00*%  G04 SMD pad mask (small)
%ADD12R,3.00X3.50*%  G04 SMD pad mask (medium)
%ADD13R,6.00X6.00*%  G04 Button pad mask
%ADD14R,5.50X5.50*%  G04 Terminal block mask
%ADD15C,4.50*%    G04 Mounting hole mask

G04 ========================================
G04 Board Outline (No mask on edges)
G04 ========================================

G04 ========================================
G04 Mounting Holes Mask (M3)
G04 ========================================
G54D15*
X13000000Y13000000D03*
X73000000Y13000000D03*
X13000000Y73000000D03*
X73000000Y73000000D03*

G04 ========================================
G04 WEAK ELECTRICAL AREA
G04 ========================================

G04 ESP32-WROOM-32D Pads Mask
G54D12*
X13000000Y25000000D03*
X13000000Y27540000D03*
X13000000Y30080000D03*
X13000000Y32620000D03*
X13000000Y35160000D03*
X13000000Y37700000D03*
X13000000Y40240000D03*
X13000000Y42780000D03*
X13000000Y45320000D03*
X13000000Y47860000D03*
X13000000Y50400000D03*
X13000000Y52940000D03*
X13000000Y55480000D03*
X13000000Y58020000D03*
X13000000Y60560000D03*
X13000000Y63100000D03*
X13000000Y65640000D03*
X13000000Y68180000D03*
X13000000Y70720000D03*

X37000000Y25000000D03*
X37000000Y27540000D03*
X37000000Y30080000D03*
X37000000Y32620000D03*
X37000000Y35160000D03*
X37000000Y37700000D03*
X37000000Y40240000D03*
X37000000Y42780000D03*
X37000000Y45320000D03*
X37000000Y47860000D03*
X37000000Y50400000D03*
X37000000Y52940000D03*
X37000000Y55480000D03*
X37000000Y58020000D03*
X37000000Y60560000D03*
X37000000Y63100000D03*
X37000000Y65640000D03*
X37000000Y68180000D03*
X37000000Y70720000D03*

G04 WS2812B LED Mask
G54D11*
X22500000Y12500000D03*
X22500000Y17500000D03*
X27500000Y17500000D03*
X27500000Y12500000D03*

G04 Button Mask (6x6mm)
G54D13*
X22000000Y67000000D03*
X22000000Y73000000D03*
X28000000Y67000000D03*
X28000000Y73000000D03*

G04 Transistor Mask (SOT-23)
G54D11*
X33500000Y53500000D03*
X35000000Y53500000D03*
X36500000Y53500000D03*

G04 Resistor/Capacitor Masks (0805)
G54D11*
X20000000Y35000000D03*
X22000000Y35000000D03*
X30000000Y40000000D03*
X32000000Y40000000D03*
X30000000Y70000000D03*
X32000000Y70000000D03*
X35000000Y48000000D03*
X37000000Y48000000D03*

G04 ========================================
G04 STRONG ELECTRICAL AREA
G04 ========================================

G04 HLK-PM01 Power Module Mask
G54D14*
X55000000Y15000000D03*
X55000000Y25000000D03*
X75000000Y15000000D03*
X75000000Y25000000D03*

G04 Electrolytic Capacitor Mask
G54D11*
X50000000Y28000000D03*
X50000000Y32000000D03*

G04 Fuse Holder Mask
G54D14*
X63000000Y33000000D03*
X67000000Y33000000D03*
X63000000Y37000000D03*
X67000000Y37000000D03*

G04 MOV Varistor Mask
G54D11*
X48000000Y18000000D03*
X52000000Y18000000D03*

G04 Relay SRD-05VDC-SL-C Mask
G54D12*
X55000000Y50000000D03*
X55000000Y60000000D03*
X75000000Y50000000D03*
X75000000Y55000000D03*
X75000000Y60000000D03*

G04 Freewheeling Diode Mask
G54D11*
X60000000Y52000000D03*
X60000000Y58000000D03*

G04 Terminal Blocks Mask
G54D14*
X80000000Y20000000D03*
X85000000Y20000000D03*
X80000000Y30000000D03*
X85000000Y30000000D03*
X80000000Y55000000D03*
X85000000Y55000000D03*
X80000000Y70000000D03*
X85000000Y70000000D03*

G04 LED Status Indicator Hole
G54D10*
X25000000Y15000000D03*

M02*
