G04 OpenClaw Smart Switch v3.0 - Production Ready*
G04 Layer: Top Copper (Signal Layer)*
G04 Date: 2026-03-22*
G04 PCB Size: 86mm x 86mm*
G04 Designed for: ESP32-WROOM-32D + SRD-05VDC-SL-C (NC)*
G04 Strong-Weak Separation: X=45mm, Clearance >= 6mm*
%FSLAX46Y46*%
%MOMM*%
%LPD*%

G04 ========================================
G04 Aperture Definitions
G04 ========================================
%ADD10C,0.15*%    G04 Small trace (signal)
%ADD11C,0.25*%    G04 Medium trace (GPIO)
%ADD12C,0.50*%    G04 Large trace (power)
%ADD13C,1.00*%    G04 High current trace
%ADD14C,2.00*%    G04 Very high current
%ADD15R,1.50X2.00*%  G04 Small SMD pad
%ADD16R,2.00X2.50*%  G04 Medium SMD pad
%ADD17C,3.00*%    G04 LED hole
%ADD18R,2.54X2.54*%  G04 ESP32 pad (2.54mm pitch)
%ADD19C,0.80*%    G04 Via hole
%ADD20R,5.00X5.00*%  G04 Terminal block pad
%ADD21C,4.00*%    G04 Mounting hole (M3)
%ADD22R,1.50X1.50*%  G04 Button pad
%ADD23R,1.00X2.00*%  G04 Transistor pad
%ADD24C,1.50*%    G04 Relay coil pin
%ADD25C,2.00*%    G04 Relay contact pin

G04 ========================================
G04 Board Outline (86mm x 86mm)
G04 ========================================
G36*
X0Y0D02*
X86000000Y0D01*
X86000000Y86000000D01*
X0Y86000000D01*
X0Y0D01*
G37*

G04 ========================================
G04 Mounting Holes (M3, 60.3mm spacing, standard 86-type)
G04 Position: (13, 13), (73, 13), (13, 73), (73, 73)
G04 ========================================
G54D21*
X13000000Y13000000D03*
X73000000Y13000000D03*
X13000000Y73000000D03*
X73000000Y73000000D03*

G04 ========================================
G04 WEAK ELECTRICAL AREA (Left side: X < 45mm)
G04 ========================================

G04 ----------------------------------------
G04 ESP32-WROOM-32D Module (U1)
G04 Position: (25, 45) center
G04 Pins: 19+19 on each side, 2.54mm pitch
G04 ----------------------------------------
G54D18*
G04 Left pins (GPIO side)
X13000000Y25000000D03*
X13000000Y27540000D03*
X13000000Y30080000D03*
X13000000Y32620000D03*
X13000000Y35160000D03*
X13000000Y37700000D03*
X13000000Y40240000D03*
X13000000Y42780000D03*
X13000000Y45320000D03*
X13000000Y47860000D03*
X13000000Y50400000D03*
X13000000Y52940000D03*
X13000000Y55480000D03*
X13000000Y58020000D03*
X13000000Y60560000D03*
X13000000Y63100000D03*
X13000000Y65640000D03*
X13000000Y68180000D03*
X13000000Y70720000D03*

G04 Right pins (Power/Flash side)
X37000000Y25000000D03*
X37000000Y27540000D03*
X37000000Y30080000D03*
X37000000Y32620000D03*
X37000000Y35160000D03*
X37000000Y37700000D03*
X37000000Y40240000D03*
X37000000Y42780000D03*
X37000000Y45320000D03*
X37000000Y47860000D03*
X37000000Y50400000D03*
X37000000Y52940000D03*
X37000000Y55480000D03*
X37000000Y58020000D03*
X37000000Y60560000D03*
X37000000Y63100000D03*
X37000000Y65640000D03*
X37000000Y68180000D03*
X37000000Y70720000D03*

G04 ----------------------------------------
G04 WS2812B RGB LED (D1)
G04 Position: (25, 15) - Top center of weak area
G04 Package: 5050 (5.0x5.0mm)
G04 ----------------------------------------
G54D15*
X22500000Y12500000D03*
X22500000Y17500000D03*
X27500000Y17500000D03*
X27500000Y12500000D03*

G04 ----------------------------------------
G04 Configuration Button (SW1)
G04 Position: (25, 70) - Bottom center of weak area
G04 Size: 6x6mm tactile switch
G04 ----------------------------------------
G54D22*
X22000000Y67000000D03*
X22000000Y73000000D03*
X28000000Y67000000D03*
X28000000Y73000000D03*

G04 ----------------------------------------
G04 S8050 Transistor (Q1)
G04 Position: (35, 55)
G04 Package: TO-92
G04 ----------------------------------------
G54D23*
X33500000Y53500000D03*
X35000000Y53500000D03*
X36500000Y53500000D03*

G04 ----------------------------------------
G04 Decoupling Capacitors (C2, C3)
G04 Position: Near ESP32
G04 Package: 0805
G04 ----------------------------------------
G54D10*
X20000000Y35000000D03*
X22000000Y35000000D03*
X30000000Y40000000D03*
X32000000Y40000000D03*

G04 ----------------------------------------
G04 Pull-up Resistor for Button (R2)
G04 Position: Near button
G04 Value: 10K
G04 ----------------------------------------
G54D10*
X30000000Y70000000D03*
X32000000Y70000000D03*

G04 ----------------------------------------
G04 Base Resistor for Transistor (R1)
G04 Position: Between GPIO12 and transistor
G04 Value: 1K
G04 ----------------------------------------
G54D10*
X35000000Y48000000D03*
X37000000Y48000000D03*

G04 ========================================
G04 STRONG ELECTRICAL AREA (Right side: X >= 45mm)
G04 ========================================

G04 ----------------------------------------
G04 HLK-PM01 Power Module (U2)
G04 Position: (65, 20)
G04 AC-DC Converter 220V to 5V 1A
G04 ----------------------------------------
G54D20*
G04 AC Input pins
X55000000Y15000000D03*
X55000000Y25000000D03*
G04 DC Output pins
X75000000Y15000000D03*
X75000000Y25000000D03*

G04 ----------------------------------------
G04 Electrolytic Capacitor (C1)
G04 Position: (50, 30)
G04 Value: 100uF/10V
G04 ----------------------------------------
G54D19*
X50000000Y28000000D03*
X50000000Y32000000D03*

G04 ----------------------------------------
G04 Fuse Holder (F1)
G04 Position: (65, 35)
G04 Rating: 250V 1A
G04 ----------------------------------------
G54D20*
X63000000Y33000000D03*
X67000000Y33000000D03*
X63000000Y37000000D03*
X67000000Y37000000D03*

G04 ----------------------------------------
G04 MOV Varistor (RV1)
G04 Position: (50, 20)
G04 Value: 14D471K
G04 ----------------------------------------
G54D19*
X48000000Y18000000D03*
X52000000Y18000000D03*

G04 ----------------------------------------
G04 Relay SRD-05VDC-SL-C (K1)
G04 Position: (65, 55)
G04 Type: Normally Closed (NC)
G04 Coil: 5V DC
G04 Contact: 10A 250V AC
G04 ----------------------------------------
G54D24*
G04 Coil pins (5V and GND)
X55000000Y50000000D03*
X55000000Y60000000D03*

G54D25*
G04 Contact pins (COM and NC)
X75000000Y50000000D03*
X75000000Y55000000D03*
X75000000Y60000000D03*

G04 ----------------------------------------
G04 Freewheeling Diode (D2)
G04 Position: Near relay coil
G04 Value: 1N4007
G04 ----------------------------------------
G54D19*
X60000000Y52000000D03*
X60000000Y58000000D03*

G04 ----------------------------------------
G04 Terminal Blocks
G04 J1: L/N Input (AC 220V)
G04 J2: COM Output (to lamp)
G04 J3: SW Input (from manual switch)
G04 Position: Right edge
G04 ----------------------------------------
G54D20*
G04 L Input
X80000000Y20000000D03*
X85000000Y20000000D03*
G04 N Input
X80000000Y30000000D03*
X85000000Y30000000D03*
G04 COM Output
X80000000Y55000000D03*
X85000000Y55000000D03*
G04 SW Input
X80000000Y70000000D03*
X85000000Y70000000D03*

G04 ========================================
G04 Power Traces (High Current)
G04 ========================================
G54D13*
G04 +5V from HLK-PM01 to ESP32 and Relay
G01X75000000Y15000000D02*
X50000000Y15000000D01*
X50000000Y28000000D01*
G01X50000000Y32000000D02*
X37000000Y32000000D01*
X37000000Y25000000D01*

G04 GND Distribution
G01X75000000Y25000000D02*
X55000000Y25000000D01*
X55000000Y40000000D01*
G01X55000000Y40000000D02*
X13000000Y40000000D01*

G04 ========================================
G04 Relay Control Circuit
G04 ========================================
G54D12*
G04 GPIO12 -> R1 -> Q1 Base
G01X13000000Y60560000D02*
X35000000Y60560000D01*
X35000000Y48000000D01*

G04 Q1 Collector -> Relay Coil -> +5V
G01X36500000Y53500000D02*
X55000000Y53500000D01*
X55000000Y50000000D01*

G04 Q1 Emitter -> GND
G01X33500000Y53500000D02*
X33500000Y57000000D01*
X55000000Y57000000D01*
X55000000Y60000000D01*

G04 ========================================
G04 Signal Traces (GPIO)
G04 ========================================
G54D11*
G04 GPIO13 -> Button (with pull-up)
G01X13000000Y63100000D02*
X25000000Y63100000D01*
X25000000Y70000000D01*

G04 GPIO14 -> LED Data
G01X13000000Y65640000D02*
X25000000Y65640000D01*
X25000000Y17500000D01*

G04 Button Pull-up to 3.3V
G01X30000000Y70000000D02*
X30000000Y65000000D01*
X37000000Y65000000D01*
X37000000Y25000000D01*

G04 LED VCC to +5V
G01X22500000Y12500000D02*
X22500000Y10000000D01*
X50000000Y10000000D01*
X50000000Y15000000D01*

G04 LED GND
G01X27500000Y17500000D02*
X27500000Y20000000D01*
X33500000Y20000000D01*
X33500000Y57000000D01*

G04 ========================================
G04 AC Power Traces (High Voltage)
G04 ========================================
G54D14*
G04 L Input -> Fuse -> Relay COM
G01X80000000Y20000000D02*
X65000000Y20000000D01*
X65000000Y33000000D01*
G01X67000000Y33000000D02*
X75000000Y33000000D01*
X75000000Y50000000D01*

G04 N Input -> HLK-PM01
G01X80000000Y30000000D02*
X55000000Y30000000D01*
X55000000Y25000000D01*

G04 Relay NC -> COM Output
G01X75000000Y55000000D02*
X80000000Y55000000D01*

G04 Manual Switch Input
G01X80000000Y70000000D02*
X70000000Y70000000D01*
X70000000Y77000000D01*
X25000000Y77000000D01*
X25000000Y73000000D01*

M02*
