; OpenClaw Smart Switch v2.0 - Drill File
; Complete Design with All Component Holes
; Date: 2026-03-19
; Units: METRIC
; File Format: Excellon
M48
FMAT,2
METRIC,TZ
; Tool Definitions
T1C0.30   ; Via holes
T2C0.80   ; Signal holes
T3C1.00   ; Component leads
T4C3.20   ; M3 mounting holes
T5C1.50   ; Relay pins
T6C1.00   ; Terminal block pins
T7C0.90   ; Electrolytic capacitor
T8C0.80   ; Inductor pads
%
G90
G05
; ============================================================
; Mounting Holes (M3 x 4 corners)
; ============================================================
T4
X5.00Y5.00
X81.00Y5.00
X5.00Y81.00
X81.00Y81.00

; ============================================================
; Terminal Block J1 (AC Input - KF301-2P)
; ============================================================
T6
X10.00Y30.00
X12.54Y30.00
X10.00Y35.00
X12.54Y35.00

; ============================================================
; Terminal Block J2 (Load Output - KF301-2P)
; ============================================================
X75.00Y30.00
X77.54Y30.00
X75.00Y35.00
X77.54Y35.00

; ============================================================
; BP2525 Power IC (SOP-8)
; ============================================================
T2
X20.00Y20.00
X25.00Y20.00
X30.00Y20.00
X35.00Y20.00
X20.00Y25.00
X25.00Y25.00
X30.00Y25.00
X35.00Y25.00

; ============================================================
; Inductor (10uH - 5x5mm)
; ============================================================
T8
X28.00Y30.00
X32.00Y30.00

; ============================================================
; Electrolytic Capacitor (1000uF - 8x11mm)
; ============================================================
T7
X40.00Y25.00
X40.00Y30.00

; ============================================================
; Ceramic Capacitors (0805/1206)
; ============================================================
T1
X35.00Y35.00
X40.00Y35.00

; ============================================================
; Relay HF32FV-G
; ============================================================
T5
X60.00Y20.00
X65.00Y20.00
X70.00Y20.00
X75.00Y20.00
X60.00Y40.00
X65.00Y40.00
X70.00Y40.00
X75.00Y40.00

; ============================================================
; ESP32-C3 Module (WROOM-02)
; All GPIO pins broken out
; ============================================================
T2
X43.00Y50.00
X45.00Y50.00
X47.00Y50.00
X49.00Y50.00
X51.00Y50.00
X53.00Y50.00
X55.00Y50.00
X57.00Y50.00
X43.00Y52.00
X45.00Y52.00
X47.00Y52.00
X49.00Y52.00
X51.00Y52.00
X53.00Y52.00
X55.00Y52.00
X57.00Y52.00
X43.00Y54.00
X45.00Y54.00
X47.00Y54.00
X49.00Y54.00
X51.00Y54.00
X53.00Y54.00
X55.00Y54.00
X57.00Y54.00
X43.00Y56.00
X45.00Y56.00
X47.00Y56.00
X49.00Y56.00
X51.00Y56.00
X53.00Y56.00
X55.00Y56.00
X57.00Y56.00

; ============================================================
; Transistor S8050 (SOT-23)
; ============================================================
T1
X58.00Y62.00
X59.00Y62.00
X60.00Y62.00

; ============================================================
; RGB LED (0603)
; ============================================================
T1
X60.00Y55.00
X61.00Y55.00
X63.00Y55.00
X64.00Y55.00
X66.00Y55.00
X67.00Y55.00

; ============================================================
; Switch Button SW1 (6x6mm tactile switch)
; ============================================================
T3
X15.00Y70.00
X21.00Y70.00
X15.00Y76.00
X21.00Y76.00

; ============================================================
; Config/Reset Button SW2 (4.5x4.5mm SMD switch)
; ============================================================
T1
X70.00Y70.00
X71.00Y70.00
X72.00Y70.00
X73.00Y70.00

; ============================================================
; Via Holes (Signal + Ground stitching)
; ============================================================
T1
X10.00Y10.00
X5.00Y5.00
X43.00Y10.00
X75.00Y10.00
X81.00Y5.00
X5.00Y81.00
X81.00Y81.00
X43.00Y60.00
X50.00Y70.00
X70.00Y75.00
X15.00Y65.00
X25.00Y65.00
X50.00Y50.00
X55.00Y50.00
X60.00Y50.00

M30
